<svg width="31" height="29" viewBox="0 0 31 29" fill="none" xmlns="http://www.w3.org/2000/svg">
<path d="M12.4582 0.33606H18.4582C19.2538 0.33606 20.0169 0.65213 20.5795 1.21474C21.1421 1.77735 21.4582 2.54041 21.4582 3.33606V6.33606H27.4582C28.2538 6.33606 29.0169 6.65213 29.5795 7.21474C30.1421 7.77735 30.4582 8.54041 30.4582 9.33606V25.8361C30.4582 26.6317 30.1421 27.3948 29.5795 27.9574C29.0169 28.52 28.2538 28.8361 27.4582 28.8361H3.45819C1.79319 28.8361 0.458191 27.4861 0.458191 25.8361V9.33606C0.458191 7.67106 1.79319 6.33606 3.45819 6.33606H9.45819V3.33606C9.45819 1.67106 10.7932 0.33606 12.4582 0.33606ZM18.4582 6.33606V3.33606H12.4582V6.33606H18.4582Z" fill="#F2C94C"/>
</svg>
