<svg width="31" height="27" viewBox="0 0 31 27" fill="none" xmlns="http://www.w3.org/2000/svg">
<path d="M11.3642 4.725C12.8104 4.725 14.1974 5.29951 15.22 6.32214C16.2427 7.34478 16.8172 8.73177 16.8172 10.178C16.8172 11.6242 16.2427 13.0112 15.22 14.0338C14.1974 15.0565 12.8104 15.631 11.3642 15.631C9.91795 15.631 8.53096 15.0565 7.50833 14.0338C6.48569 13.0112 5.91118 11.6242 5.91118 10.178C5.91118 8.73177 6.48569 7.34478 7.50833 6.32214C8.53096 5.29951 9.91795 4.725 11.3642 4.725ZM11.3642 18.3575C15.0041 18.3575 22.2702 20.1842 22.2702 23.8105V26.537H0.458191V23.8105C0.458191 20.1842 7.72431 18.3575 11.3642 18.3575ZM21.943 5.21577C24.6967 8.21492 24.6967 12.3728 21.943 15.1266L19.6527 12.8227C20.7979 11.2141 20.7979 9.12829 19.6527 7.51966L21.943 5.21577ZM26.4553 0.635254C31.8129 6.15641 31.772 14.4177 26.4553 19.7207L24.2332 17.4986C28.0094 13.1635 28.0094 6.97436 24.2332 2.85735L26.4553 0.635254Z" fill="#F2C94C"/>
</svg>
