<svg width="31" height="25" viewBox="0 0 31 25" fill="none" xmlns="http://www.w3.org/2000/svg">
<path d="M27.7309 0.995117H3.18546C2.46215 0.995117 1.76845 1.28245 1.25699 1.79392C0.745528 2.30538 0.458191 2.99907 0.458191 3.72239V21.4497C0.458191 22.173 0.745528 22.8667 1.25699 23.3781C1.76845 23.8896 2.46215 24.1769 3.18546 24.1769H27.7309C28.4542 24.1769 29.1479 23.8896 29.6594 23.3781C30.1709 22.8667 30.4582 22.173 30.4582 21.4497V3.72239C30.4582 2.99907 30.1709 2.30538 29.6594 1.79392C29.1479 1.28245 28.4542 0.995117 27.7309 0.995117ZM3.18546 21.4497V3.72239H14.0946V21.4497H3.18546ZM27.7309 21.4497H16.8218V3.72239H27.7309V21.4497ZM18.1855 8.49512H26.3673V10.5406H18.1855V8.49512ZM18.1855 11.9042H26.3673V13.9497H18.1855V11.9042ZM18.1855 15.3133H26.3673V17.3588H18.1855V15.3133Z" fill="#F2C94C"/>
</svg>
