<svg width="31" height="31" viewBox="0 0 31 31" fill="none" xmlns="http://www.w3.org/2000/svg">
<path d="M7.95819 23.0861L12.7582 12.8861L22.9582 8.08606L18.1582 18.2861L7.95819 23.0861ZM15.4582 14.2361C15.1001 14.2361 14.7568 14.3783 14.5036 14.6315C14.2504 14.8846 14.1082 15.228 14.1082 15.5861C14.1082 15.9441 14.2504 16.2875 14.5036 16.5407C14.7568 16.7938 15.1001 16.9361 15.4582 16.9361C15.8162 16.9361 16.1596 16.7938 16.4128 16.5407C16.666 16.2875 16.8082 15.9441 16.8082 15.5861C16.8082 15.228 16.666 14.8846 16.4128 14.6315C16.1596 14.3783 15.8162 14.2361 15.4582 14.2361ZM15.4582 0.58606C17.428 0.58606 19.3786 0.974046 21.1984 1.72787C23.0183 2.48169 24.6719 3.58658 26.0648 4.97946C27.4577 6.37234 28.5626 8.02592 29.3164 9.84581C30.0702 11.6657 30.4582 13.6162 30.4582 15.5861C30.4582 19.5643 28.8778 23.3796 26.0648 26.1927C23.2517 29.0057 19.4364 30.5861 15.4582 30.5861C13.4884 30.5861 11.5378 30.1981 9.71794 29.4443C7.89806 28.6904 6.24447 27.5855 4.85159 26.1927C2.03854 23.3796 0.458191 19.5643 0.458191 15.5861C0.458191 11.6078 2.03854 7.7925 4.85159 4.97946C7.66463 2.16641 11.4799 0.58606 15.4582 0.58606ZM15.4582 3.58606C12.2756 3.58606 9.22335 4.85034 6.97291 7.10078C4.72247 9.35121 3.45819 12.4035 3.45819 15.5861C3.45819 18.7687 4.72247 21.8209 6.97291 24.0713C9.22335 26.3218 12.2756 27.5861 15.4582 27.5861C18.6408 27.5861 21.693 26.3218 23.9435 24.0713C26.1939 21.8209 27.4582 18.7687 27.4582 15.5861C27.4582 12.4035 26.1939 9.35121 23.9435 7.10078C21.693 4.85034 18.6408 3.58606 15.4582 3.58606Z" fill="#F2C94C"/>
</svg>
