<svg width="31" height="31" viewBox="0 0 31 31" fill="none" xmlns="http://www.w3.org/2000/svg">
<path d="M15.4582 7.40424C17.6281 7.40424 19.7092 8.26625 21.2436 9.80064C22.778 11.335 23.64 13.4161 23.64 15.5861C23.64 18.6133 21.99 21.2588 19.5491 22.677V25.1315C19.5491 25.4932 19.4054 25.84 19.1497 26.0958C18.894 26.3515 18.5471 26.4952 18.1855 26.4952H12.7309C12.3693 26.4952 12.0224 26.3515 11.7667 26.0958C11.511 25.84 11.3673 25.4932 11.3673 25.1315V22.677C8.92637 21.2588 7.27637 18.6133 7.27637 15.5861C7.27637 13.4161 8.13838 11.335 9.67277 9.80064C11.2072 8.26625 13.2882 7.40424 15.4582 7.40424ZM18.1855 27.8588V29.2224C18.1855 29.5841 18.0418 29.9309 17.7861 30.1867C17.5303 30.4424 17.1835 30.5861 16.8218 30.5861H14.0946C13.7329 30.5861 13.3861 30.4424 13.1303 30.1867C12.8746 29.9309 12.7309 29.5841 12.7309 29.2224V27.8588H18.1855ZM26.3673 14.2224H30.4582V16.9497H26.3673V14.2224ZM0.458191 14.2224H4.5491V16.9497H0.458191V14.2224ZM16.8218 0.58606V4.67697H14.0946V0.58606H16.8218ZM5.80365 3.99515L8.70819 6.91333L6.77183 8.83606L3.86728 5.94515L5.80365 3.99515ZM22.2082 6.8997L25.0991 3.99515L27.0491 5.94515L24.1446 8.83606L22.2082 6.8997Z" fill="#F2C94C"/>
</svg>
