<svg width="31" height="31" viewBox="0 0 31 31" fill="none" xmlns="http://www.w3.org/2000/svg">
<path d="M21.9982 18.5861C22.1182 17.5961 22.2082 16.6061 22.2082 15.5861C22.2082 14.5661 22.1182 13.5761 21.9982 12.5861H27.0682C27.3082 13.5461 27.4582 14.5511 27.4582 15.5861C27.4582 16.6211 27.3082 17.6261 27.0682 18.5861H21.9982ZM19.3432 26.9261C20.2432 25.2611 20.9332 23.4611 21.4132 21.5861H25.8382C24.3982 24.0611 22.1032 25.9811 19.3432 26.9261ZM18.9682 18.5861H11.9482C11.7982 17.5961 11.7082 16.6061 11.7082 15.5861C11.7082 14.5661 11.7982 13.5611 11.9482 12.5861H18.9682C19.1032 13.5611 19.2082 14.5661 19.2082 15.5861C19.2082 16.6061 19.1032 17.5961 18.9682 18.5861ZM15.4582 27.5261C14.2132 25.7261 13.2082 23.7311 12.5932 21.5861H18.3232C17.7082 23.7311 16.7032 25.7261 15.4582 27.5261ZM9.45819 9.58606H5.07819C6.50319 7.09606 8.81319 5.17606 11.5582 4.24606C10.6582 5.91106 9.98319 7.71106 9.45819 9.58606ZM5.07819 21.5861H9.45819C9.98319 23.4611 10.6582 25.2611 11.5582 26.9261C8.81319 25.9811 6.50319 24.0611 5.07819 21.5861ZM3.84819 18.5861C3.60819 17.6261 3.45819 16.6211 3.45819 15.5861C3.45819 14.5511 3.60819 13.5461 3.84819 12.5861H8.91819C8.79819 13.5761 8.70819 14.5661 8.70819 15.5861C8.70819 16.6061 8.79819 17.5961 8.91819 18.5861H3.84819ZM15.4582 3.63106C16.7032 5.43106 17.7082 7.44106 18.3232 9.58606H12.5932C13.2082 7.44106 14.2132 5.43106 15.4582 3.63106ZM25.8382 9.58606H21.4132C20.9332 7.71106 20.2432 5.91106 19.3432 4.24606C22.1032 5.19106 24.3982 7.09606 25.8382 9.58606ZM15.4582 0.58606C7.16319 0.58606 0.458191 7.33606 0.458191 15.5861C0.458191 19.5643 2.03854 23.3796 4.85159 26.1927C6.24447 27.5855 7.89806 28.6904 9.71794 29.4443C11.5378 30.1981 13.4884 30.5861 15.4582 30.5861C19.4364 30.5861 23.2517 29.0057 26.0648 26.1927C28.8778 23.3796 30.4582 19.5643 30.4582 15.5861C30.4582 13.6162 30.0702 11.6657 29.3164 9.84581C28.5626 8.02592 27.4577 6.37234 26.0648 4.97946C24.6719 3.58658 23.0183 2.48169 21.1984 1.72787C19.3786 0.974046 17.428 0.58606 15.4582 0.58606V0.58606Z" fill="#F2C94C"/>
</svg>
