<svg width="40" height="42" viewBox="0 0 40 42" fill="none" xmlns="http://www.w3.org/2000/svg">
<path d="M35.8499 31.5644H4.11416C3.87392 31.5644 3.6577 31.6605 3.51356 31.8287C3.36941 31.9728 3.27332 32.189 3.27332 32.4293V35.2881C3.27332 36.2971 3.68172 37.2101 4.33037 37.8827C5.00304 38.5554 5.91596 38.9638 6.92497 38.9638H33.0391C34.0241 38.9638 34.937 38.5554 35.5856 37.9308L35.6337 37.8827C36.2823 37.2101 36.7148 36.2971 36.7148 35.2881V32.4293C36.7148 32.2131 36.6187 32.0209 36.4985 31.8527L36.4505 31.8287C36.3063 31.6605 36.0901 31.5644 35.8499 31.5644Z" fill="#FFB366"/>
<path d="M37.7958 27.5764C37.4114 27.7446 37.003 27.8407 36.5946 27.8407V27.8167C35.1532 27.8407 34.4324 27.12 33.7117 26.3992C33.3273 25.9908 32.9429 25.6065 32.4384 25.6065C31.958 25.6065 31.5736 25.9908 31.1652 26.3992C30.4685 27.12 29.7477 27.8407 28.3063 27.8167C26.8649 27.8407 26.1441 27.12 25.4234 26.3992C25.039 25.9908 24.6547 25.6065 24.1502 25.6065C23.6456 25.6065 23.2613 25.9908 22.8769 26.3992C22.1562 27.12 21.4354 27.8407 20.018 27.8167C18.5766 27.8407 17.8559 27.12 17.1351 26.3992C16.7507 25.9908 16.3664 25.6065 15.8619 25.6065C15.3574 25.6065 14.973 25.9908 14.5886 26.3992C13.8679 27.12 13.1471 27.8407 11.7057 27.8167C10.2883 27.8407 9.56756 27.12 8.84684 26.3992C8.46246 25.9908 8.07807 25.6065 7.57357 25.6065C7.06907 25.6065 6.68468 25.9908 6.3003 26.3992C5.57958 27.12 4.85886 27.8407 3.41741 27.8167V27.8407C3.00901 27.8407 2.6006 27.7446 2.24024 27.5764C2.16817 27.7446 2.14414 27.8887 2.12012 28.0569C2.12012 28.2971 2.14414 28.5134 2.24024 28.7296C2.31231 28.9218 2.43243 29.0899 2.57657 29.2101C2.76877 29.3782 3.05705 29.4743 3.41741 29.4743H36.5946C37.051 29.4743 37.3634 29.3302 37.5796 29.0899C37.6757 28.9698 37.7477 28.8257 37.7958 28.6815C37.8679 28.5134 37.8919 28.3452 37.8919 28.153C37.8919 27.9608 37.8438 27.7686 37.7958 27.5764Z" fill="#996633"/>
<path d="M37.916 23.9728C37.916 23.4443 37.7478 22.9638 37.4596 22.6515C37.2433 22.3632 36.931 22.195 36.5947 22.195H3.41751C3.08118 22.195 2.79289 22.3632 2.55265 22.6515C2.26436 22.9638 2.09619 23.4443 2.09619 23.9728C2.09619 24.4773 2.26436 24.9578 2.55265 25.2701C2.79289 25.5584 3.08118 25.7266 3.41751 25.7266H3.44154C3.99409 25.7506 4.4025 25.3182 4.81091 24.9098C5.5076 24.2131 6.2043 23.5164 7.57367 23.5164C8.94304 23.5164 9.61571 24.2131 10.3364 24.9098C10.7448 25.3182 11.1532 25.7506 11.7058 25.7266H11.7298C12.2824 25.7506 12.6908 25.3182 13.0992 24.9098C13.7959 24.2131 14.4926 23.5164 15.862 23.5164C17.2313 23.5164 17.928 24.2131 18.6247 24.9098C19.0331 25.3182 19.4415 25.7506 19.9941 25.7266H20.0181C20.5707 25.7506 20.9791 25.3182 21.3875 24.9098C22.1082 24.2131 22.8049 23.5164 24.1502 23.5164C25.5196 23.5164 26.2163 24.2131 26.913 24.9098C27.3214 25.3182 27.7298 25.7506 28.2824 25.7266H28.3064C28.883 25.7506 29.2914 25.3182 29.6998 24.9098C30.3965 24.2131 31.0932 23.5164 32.4385 23.5164C33.8079 23.5164 34.5046 24.2131 35.2013 24.9098C35.6097 25.3182 36.0181 25.7506 36.5947 25.7266C36.931 25.7266 37.2433 25.5584 37.4596 25.2701C37.7478 24.9578 37.916 24.4773 37.916 23.9728Z" fill="#7FCC33"/>
<path d="M36.5826 17.4623H35.4054H20.006H4.60663H3.40543C3.04507 17.4623 2.70873 17.6065 2.46849 17.8467C2.22825 18.0869 2.08411 18.4233 2.08411 18.7836C2.08411 19.144 2.22825 19.4563 2.46849 19.6965C2.70873 19.9368 3.04507 20.105 3.40543 20.105H36.5826C36.943 20.105 37.2793 19.9368 37.5195 19.7206V19.6965C37.7598 19.4803 37.9039 19.144 37.9039 18.7836C37.9039 18.4233 37.7598 18.0869 37.5195 17.8467C37.2793 17.6065 36.943 17.4623 36.5826 17.4623Z" fill="#FFDD33"/>
<path d="M4.6066 15.3482H35.4054C35.7658 15.3482 36.0781 15.2041 36.3183 14.9638C36.5585 14.7236 36.7267 14.3872 36.7267 14.0269C36.7267 10.6395 34.9009 8.02087 32.2342 6.14699C28.9189 3.81666 24.2823 2.63948 20.006 2.63948C15.7297 2.63948 11.0691 3.81666 7.75375 6.14699C5.08708 8.02087 3.28528 10.6395 3.28528 14.0269C3.28528 14.3872 3.42942 14.7236 3.66966 14.9638L3.69369 15.0119C3.93393 15.2281 4.24624 15.3482 4.58258 15.3482H4.6066Z" fill="#FFB366"/>
<path d="M4.61261 15.3482H35.4114C35.7718 15.3482 36.0841 15.204 36.3243 14.9638C36.5646 14.7236 36.7327 14.3872 36.7327 14.0269C36.7327 10.6395 34.9069 8.02086 32.2402 6.14699C28.9249 3.81666 24.2883 2.63948 20.012 2.63948C15.7357 2.63948 11.0751 3.81666 7.75976 6.14699C5.09309 8.02086 3.29129 10.6395 3.29129 14.0269C3.29129 14.3872 3.43544 14.7236 3.67568 14.9638L3.6997 15.0119C3.93994 15.2281 4.25225 15.3482 4.58859 15.3482H4.61261ZM37.9099 23.9728C37.9099 23.4443 37.7417 22.9638 37.4535 22.6515C37.2372 22.3632 36.9249 22.195 36.5886 22.195H3.41141C3.07508 22.195 2.78679 22.3632 2.54655 22.6515C2.25826 22.9638 2.09009 23.4443 2.09009 23.9728C2.09009 24.4773 2.25826 24.9578 2.54655 25.2701C2.78679 25.5584 3.07508 25.7266 3.41141 25.7266H3.43544C3.98799 25.7506 4.3964 25.3182 4.80481 24.9098C5.5015 24.2131 6.1982 23.5164 7.56757 23.5164C8.93694 23.5164 9.60961 24.2131 10.3303 24.9098C10.7387 25.3182 11.1471 25.7506 11.6997 25.7266H11.7237C12.2763 25.7506 12.6847 25.3182 13.0931 24.9098C13.7898 24.2131 14.4865 23.5164 15.8559 23.5164C17.2252 23.5164 17.9219 24.2131 18.6186 24.9098C19.027 25.3182 19.4354 25.7506 19.988 25.7266H20.012C20.5646 25.7506 20.973 25.3182 21.3814 24.9098C22.1021 24.2131 22.7988 23.5164 24.1441 23.5164C25.5135 23.5164 26.2102 24.2131 26.9069 24.9098C27.3153 25.3182 27.7237 25.7506 28.2763 25.7266H28.3003C28.8769 25.7506 29.2853 25.3182 29.6937 24.9098C30.3904 24.2131 31.0871 23.5164 32.4324 23.5164C33.8018 23.5164 34.4985 24.2131 35.1952 24.9098C35.6036 25.3182 36.012 25.7506 36.5886 25.7266C36.9249 25.7266 37.2372 25.5584 37.4535 25.2701C37.7417 24.9578 37.9099 24.4773 37.9099 23.9728ZM39.0631 21.3061C39.6396 22.0028 40 22.9398 40 23.9728C40 24.7896 39.7838 25.5344 39.3754 26.183C39.7838 26.7596 39.976 27.4563 39.976 28.153C39.976 28.5614 39.9039 28.9698 39.7838 29.3542C39.6396 29.7386 39.4475 30.123 39.1592 30.4353C38.967 30.6755 38.7267 30.8677 38.4865 31.0359C38.7027 31.4683 38.8228 31.9248 38.8228 32.4293V35.2881C38.8228 36.8737 38.1742 38.3152 37.1411 39.3722L37.0691 39.4203C36.036 40.4293 34.6186 41.0539 33.0571 41.0539H6.94294C5.35736 41.0539 3.91592 40.4053 2.88288 39.3722C1.82583 38.3152 1.17718 36.8737 1.17718 35.2881V32.4293C1.17718 31.9248 1.32132 31.4443 1.53754 31.0359C1.44144 30.9878 1.34535 30.9158 1.24925 30.8437C0.816817 30.4833 0.480481 30.0028 0.288288 29.4983C0.0960961 29.0179 0 28.4653 0.0480481 27.9368C0.0720721 27.3122 0.264264 26.6875 0.624625 26.183C0.24024 25.5344 0 24.7896 0 23.9728C0 22.9398 0.36036 22.0028 0.936937 21.3061C0.960961 21.2821 1.00901 21.2341 1.03303 21.2101L1.00901 21.186C0.384384 20.5614 0 19.7206 0 18.7836C0 17.8227 0.384384 16.9818 1.00901 16.3572C1.2012 16.165 1.44144 15.9728 1.68168 15.8287C1.36937 15.3001 1.17718 14.6995 1.17718 14.0269C1.17718 9.87071 3.36336 6.67552 6.55856 4.44128C10.2583 1.84669 15.3514 0.549393 20.012 0.549393C24.6487 0.549393 29.7417 1.84669 33.4414 4.44128C36.6607 6.67552 38.8228 9.87071 38.8228 14.0269C38.8228 14.6995 38.6306 15.3001 38.3183 15.8287C38.5586 15.9728 38.7988 16.165 38.991 16.3572C39.6156 16.9818 40 17.8227 40 18.7836C40 19.7206 39.6156 20.5614 38.991 21.186V21.2101C39.015 21.2341 39.039 21.2581 39.0631 21.3061ZM37.7898 27.5764C37.4054 27.7446 36.997 27.8407 36.5886 27.8407V27.8167C35.1472 27.8407 34.4264 27.12 33.7057 26.3992C33.3213 25.9908 32.9369 25.6064 32.4324 25.6064C31.952 25.6064 31.5676 25.9908 31.1592 26.3992C30.4625 27.12 29.7417 27.8407 28.3003 27.8167C26.8589 27.8407 26.1381 27.12 25.4174 26.3992C25.033 25.9908 24.6487 25.6064 24.1441 25.6064C23.6396 25.6064 23.2553 25.9908 22.8709 26.3992C22.1502 27.12 21.4294 27.8407 20.012 27.8167C18.5706 27.8407 17.8499 27.12 17.1291 26.3992C16.7447 25.9908 16.3604 25.6064 15.8559 25.6064C15.3514 25.6064 14.967 25.9908 14.5826 26.3992C13.8619 27.12 13.1411 27.8407 11.6997 27.8167C10.207 27.8167 9.56156 27.12 8.84084 26.3992C8.45646 25.9908 8.07207 25.6064 7.56757 25.6064C7.06306 25.6064 6.67868 25.9908 6.29429 26.3992C5.57357 27.12 4.85285 27.8407 3.41141 27.8167V27.8407C3.003 27.8407 2.59459 27.7446 2.23423 27.5764C2.16216 27.7446 2.13814 27.8887 2.11411 28.0569C2.11411 28.2971 2.13814 28.5134 2.23423 28.7296C2.30631 28.9218 2.42643 29.0899 2.57057 29.2101C2.76276 29.3782 3.05105 29.4743 3.41141 29.4743H36.5886C37.045 29.4743 37.3574 29.3302 37.5736 29.0899C37.6697 28.9698 37.7417 28.8257 37.7898 28.6815C37.8619 28.5134 37.8859 28.3452 37.8859 28.153C37.8859 27.9608 37.8378 27.7686 37.7898 27.5764ZM36.5886 17.4623H35.4114H20.012H4.61261H3.41141C3.05105 17.4623 2.71472 17.6065 2.47447 17.8467C2.23423 18.0869 2.09009 18.4233 2.09009 18.7836C2.09009 19.144 2.23423 19.4563 2.47447 19.6965C2.71472 19.9368 3.05105 20.1049 3.41141 20.1049H36.5886C36.949 20.1049 37.2853 19.9368 37.5255 19.7206V19.6965C37.7658 19.4803 37.9099 19.144 37.9099 18.7836C37.9099 18.4233 37.7658 18.0869 37.5255 17.8467C37.2853 17.6065 36.949 17.4623 36.5886 17.4623ZM35.8679 31.5644H4.13213C3.89189 31.5644 3.67568 31.6605 3.53153 31.8287C3.38739 31.9728 3.29129 32.189 3.29129 32.4293V35.2881C3.29129 36.2971 3.6997 37.2101 4.34835 37.8827C5.02102 38.5554 5.93394 38.9638 6.94294 38.9638H33.0571C34.042 38.9638 34.955 38.5554 35.6036 37.9308L35.6517 37.8827C36.3003 37.2101 36.7327 36.2971 36.7327 35.2881V32.4293C36.7327 32.2131 36.6366 32.0209 36.5165 31.8527L36.4685 31.8287C36.3243 31.6605 36.1081 31.5644 35.8679 31.5644Z" fill="#4D3319"/>
</svg>
