<svg width="51" height="51" viewBox="0 0 51 51" fill="none" xmlns="http://www.w3.org/2000/svg">
<path d="M14.001 20.517C13.5679 20.1934 13.1338 20.0315 12.7008 20.0315H10.7543V31.6911H12.7019C13.1349 31.6911 13.5691 31.5293 14.0021 31.2056C14.4351 30.882 14.6516 30.3965 14.6516 29.748V21.9746C14.6505 21.3273 14.4329 20.8407 14.001 20.517V20.517ZM45.6952 0.841797H5.49428C2.79339 0.841797 0.601423 3.02818 0.594727 5.73019V45.9534C0.601423 48.6554 2.79339 50.8418 5.49428 50.8418H45.6952C48.3972 50.8418 50.588 48.6554 50.5947 45.9534V5.73019C50.588 3.02818 48.3961 0.841797 45.6952 0.841797V0.841797ZM17.8045 29.7693C17.8045 31.8686 16.5088 35.0494 12.4072 35.0427H7.22865V16.5762H12.5166C16.472 16.5762 17.8023 19.7525 17.8034 21.853L17.8045 29.7693ZM29.0412 19.8742H23.0947V24.1621H26.7298V27.4623H23.0947V31.7492H29.0423V35.0494H22.1025C20.857 35.0818 19.8213 34.0974 19.79 32.8518V18.8887C19.7599 17.6443 20.7454 16.6108 21.9898 16.5795H29.0423L29.0412 19.8742ZM40.6081 32.7414C39.1349 36.1733 36.4954 35.4902 35.3135 32.7414L31.0133 16.5806H34.6483L37.9641 29.2726L41.2644 16.5806H44.9005L40.6081 32.7414Z" fill="black"/>
</svg>
