<svg width="51" height="51" viewBox="0 0 51 51" fill="none" xmlns="http://www.w3.org/2000/svg">
<path d="M47.8354 50.8418C49.3592 50.8418 50.5948 49.6061 50.5948 48.0823V3.60131C50.5948 2.07693 49.3591 0.841797 47.8354 0.841797H3.35429C1.8299 0.841797 0.594757 2.07711 0.594757 3.60131V48.0821C0.594757 49.6061 1.8299 50.8416 3.35429 50.8416H47.8354V50.8418Z" fill="#485A96"/>
<path d="M35.094 50.8419V31.4792H41.5932L42.5663 23.9332H35.0938V19.1154C35.0938 16.9306 35.7004 15.4418 38.8335 15.4418L42.8293 15.44V8.69086C42.1382 8.59907 39.7661 8.39355 37.0067 8.39355C31.2454 8.39355 27.3012 11.9101 27.3012 18.3683V23.9332H20.7852V31.4792H27.3012V50.8417H35.094V50.8419Z" fill="white"/>
</svg>
