<svg width="51" height="50" viewBox="0 0 51 50" fill="none" xmlns="http://www.w3.org/2000/svg">
<path d="M25.5947 0.217285C11.782 0.217285 0.594727 11.4045 0.594727 25.2173C0.594727 36.9662 8.65643 46.7173 19.533 49.4662C19.4075 49.1535 19.3458 48.7152 19.3458 48.279V44.0279H16.2203C14.533 44.0279 12.9692 43.279 12.282 41.9024C11.4692 40.4024 11.3437 38.0896 9.28196 36.6513C8.65643 36.1513 9.15643 35.6513 9.84366 35.713C11.1564 36.0875 12.2181 36.9641 13.2181 38.2747C14.2181 39.5875 14.6564 39.9003 16.5309 39.9003C17.4054 39.9003 18.7798 39.8386 20.0309 39.6492C20.7181 37.8981 21.9054 36.3364 23.3437 35.5875C14.9692 34.5875 10.9692 30.462 10.9692 24.8364C10.9692 22.3981 12.0309 20.0854 13.782 18.0854C13.2203 16.1471 12.4692 12.1471 14.033 10.5854C17.7841 10.5854 20.033 13.0237 20.5947 13.6471C22.4692 13.0215 24.533 12.6471 26.6564 12.6471C28.8437 12.6471 30.8437 13.0215 32.7181 13.6471C33.2798 13.0215 35.5309 10.5854 39.2798 10.5854C40.7798 12.0854 40.0926 16.1471 39.4671 18.0854C41.2181 20.0237 42.2181 22.3981 42.2181 24.8364C42.2181 30.462 38.2798 34.5875 29.9692 35.462C32.282 36.6492 33.9075 40.0237 33.9075 42.5237V48.2173C33.9075 48.4045 33.8458 48.5917 33.8458 48.779C43.5947 45.4045 50.5947 36.1556 50.5947 25.2173C50.5947 11.4045 39.4075 0.217285 25.5947 0.217285Z" fill="black"/>
</svg>
