<svg width="51" height="47" viewBox="0 0 51 47" fill="none" xmlns="http://www.w3.org/2000/svg">
<path d="M25.5948 46.8709L34.8012 18.5366H16.3881L25.5946 46.8709H25.5948Z" fill="#E24329"/>
<path d="M25.5948 46.8709L16.3881 18.5366H3.48572L25.5948 46.8709Z" fill="#FC6D26"/>
<path d="M3.4857 18.5366L0.688034 27.1473C0.563641 27.5301 0.563624 27.9425 0.687985 28.3253C0.812346 28.7081 1.0547 29.0417 1.38032 29.2783L25.5947 46.8711L3.4855 18.5368L3.4857 18.5366Z" fill="#FCA326"/>
<path d="M3.48572 18.5367H16.3881L10.8434 1.47104C10.5581 0.592888 9.31578 0.593084 9.03062 1.47104L3.48572 18.5367Z" fill="#E24329"/>
<path d="M25.5947 46.8709L34.8012 18.5366H47.7038L25.5945 46.8709H25.5947Z" fill="#FC6D26"/>
<path d="M47.7038 18.5366L50.5015 27.1473C50.6258 27.5302 50.6258 27.9425 50.5014 28.3253C50.377 28.7082 50.1346 29.0418 49.809 29.2783L25.5947 46.8711L47.7038 18.5368V18.5366Z" fill="#FCA326"/>
<path d="M47.7038 18.5367H34.8012L40.3461 1.47104C40.6315 0.592888 41.8737 0.593084 42.1589 1.47104L47.7038 18.5367Z" fill="#E24329"/>
</svg>
