<svg width="47" height="51" viewBox="0 0 47 51" fill="none" xmlns="http://www.w3.org/2000/svg">
<path d="M6.53115 8.90134L17.7355 2.43251C19.5404 1.39042 21.5878 0.841797 23.6719 0.841797C25.756 0.841797 27.8035 1.39042 29.6083 2.43251L40.8127 8.90134C42.6176 9.94342 44.1164 11.4423 45.1585 13.2472C46.2005 15.0521 46.7491 17.0995 46.7491 19.1837V32.4999C46.7491 34.5841 46.2005 36.6315 45.1585 38.4364C44.1164 40.2413 42.6176 41.7402 40.8127 42.7823L29.6083 49.2511C27.8035 50.2932 25.756 50.8418 23.6719 50.8418C21.5878 50.8418 19.5404 50.2932 17.7355 49.2511L6.53115 42.4035C4.72624 41.3614 3.22744 39.8626 2.18538 38.0576C1.14332 36.2527 0.594721 34.2053 0.594727 32.1211L0.594727 19.1837C0.594721 17.0995 1.14332 15.0521 2.18538 13.2472C3.22744 11.4423 4.72624 9.94342 6.53115 8.90134" fill="#01B7D4"/>
<path d="M33.2696 32.9291L25.7935 19.7361C24.6822 17.7641 22.5733 17.8418 21.8158 20.6358C21.1527 23.2641 21.3333 25.7589 21.1402 28.7528C21.1371 28.8001 21.0731 28.8114 21.0519 28.7692L14.3864 15.4375C14.915 15.0306 15.257 14.3932 15.257 13.6744C15.257 12.4452 14.2605 11.4487 13.0313 11.4487C11.8021 11.4487 10.8056 12.4452 10.8056 13.6744C10.8056 14.9038 11.8021 15.9003 13.0313 15.9003C13.1229 15.9003 13.2125 15.8931 13.3012 15.8823C16.1087 23.1114 19.236 31.5365 20.3478 33.4692C21.0896 35.332 23.7045 34.7428 23.7571 32.7385L24.0353 22.1973C24.0368 22.1427 24.1118 22.1284 24.133 22.1789L29.5053 34.9332C29.1891 35.5074 29.0237 36.1524 29.0245 36.8079C29.0245 38.9598 30.769 40.7043 32.9206 40.7043C35.0727 40.7043 36.8172 38.9598 36.8172 36.8079C36.8172 34.7738 35.2577 33.1058 33.2698 32.9291" fill="white"/>
</svg>
