<svg width="51" height="51" viewBox="0 0 51 51" fill="none" xmlns="http://www.w3.org/2000/svg">
<path d="M17.2634 25.8418C17.2634 21.2396 20.9933 17.5078 25.5957 17.5078C30.1981 17.5078 33.9301 21.2396 33.9301 25.8418C33.9301 30.444 30.1981 34.1758 25.5957 34.1758C20.9933 34.1758 17.2634 30.444 17.2634 25.8418ZM12.758 25.8418C12.758 32.9318 18.5054 38.679 25.5957 38.679C32.686 38.679 38.4334 32.9318 38.4334 25.8418C38.4334 18.7518 32.686 13.0046 25.5957 13.0046C18.5054 13.0046 12.758 18.7518 12.758 25.8418ZM35.9415 12.4956C35.9413 13.0889 36.117 13.669 36.4465 14.1625C36.7759 14.656 37.2443 15.0407 37.7925 15.268C38.3406 15.4953 38.9438 15.5549 39.5258 15.4394C40.1078 15.3239 40.6425 15.0384 41.0622 14.619C41.482 14.1996 41.7679 13.6651 41.8839 13.0832C41.9999 12.5013 41.9407 11.8981 41.7139 11.3499C41.487 10.8016 41.1027 10.3329 40.6094 10.0031C40.1162 9.67321 39.5362 9.49703 38.9429 9.4968H38.9417C38.1463 9.49717 37.3836 9.81319 36.8211 10.3755C36.2586 10.9377 35.9422 11.7003 35.9415 12.4956V12.4956ZM15.4953 46.1912C13.0578 46.0802 11.733 45.6742 10.8525 45.3312C9.68529 44.8768 8.85246 44.3356 7.97682 43.4612C7.10119 42.5868 6.55917 41.7548 6.10675 40.5876C5.76353 39.7076 5.35752 38.3824 5.24671 35.945C5.12551 33.3098 5.10131 32.5182 5.10131 25.842C5.10131 19.1658 5.12751 18.3764 5.24671 15.739C5.35772 13.3016 5.76673 11.979 6.10675 11.0964C6.56117 9.9292 7.10239 9.0964 7.97682 8.2208C8.85126 7.3452 9.68329 6.8032 10.8525 6.3508C11.7326 6.0076 13.0578 5.6016 15.4953 5.4908C18.1306 5.3696 18.9223 5.3454 25.5957 5.3454C32.2692 5.3454 33.0616 5.3716 35.6991 5.4908C38.1366 5.6018 39.4593 6.0108 40.3419 6.3508C41.5092 6.8032 42.342 7.3464 43.2176 8.2208C44.0933 9.0952 44.6333 9.9292 45.0877 11.0964C45.4309 11.9764 45.8369 13.3016 45.9477 15.739C46.0689 18.3764 46.0931 19.1658 46.0931 25.842C46.0931 32.5182 46.0689 33.3076 45.9477 35.945C45.8367 38.3824 45.4287 39.7072 45.0877 40.5876C44.6333 41.7548 44.0921 42.5876 43.2176 43.4612C42.3432 44.3348 41.5092 44.8768 40.3419 45.3312C39.4619 45.6744 38.1366 46.0804 35.6991 46.1912C33.0638 46.3124 32.2722 46.3366 25.5957 46.3366C18.9193 46.3366 18.1298 46.3124 15.4953 46.1912V46.1912ZM15.2883 0.993197C12.6268 1.1144 10.8081 1.5364 9.21987 2.1544C7.57501 2.7926 6.18255 3.6488 4.79109 5.038C3.39964 6.4272 2.5456 7.8218 1.90738 9.4666C1.28935 11.0558 0.867337 12.8734 0.746133 15.5348C0.622928 18.2004 0.594727 19.0526 0.594727 25.8418C0.594727 32.631 0.622928 33.4832 0.746133 36.1488C0.867337 38.8104 1.28935 40.6278 1.90738 42.217C2.5456 43.8608 3.39984 45.257 4.79109 46.6456C6.18235 48.0342 7.57501 48.8892 9.21987 49.5292C10.8111 50.1472 12.6268 50.5692 15.2883 50.6904C17.9554 50.8116 18.8063 50.8418 25.5957 50.8418C32.3852 50.8418 33.2374 50.8136 35.9031 50.6904C38.5648 50.5692 40.3823 50.1472 41.9716 49.5292C43.6154 48.8892 45.0089 48.0348 46.4004 46.6456C47.7918 45.2564 48.6441 43.8608 49.2841 42.217C49.9021 40.6278 50.3261 38.8102 50.4453 36.1488C50.5665 33.4812 50.5947 32.631 50.5947 25.8418C50.5947 19.0526 50.5665 18.2004 50.4453 15.5348C50.3241 12.8732 49.9021 11.0548 49.2841 9.4666C48.6441 7.8228 47.7896 6.4294 46.4004 5.038C45.0111 3.6466 43.6155 2.7926 41.9736 2.1544C40.3823 1.5364 38.5646 1.1124 35.9051 0.993197C33.2394 0.871997 32.3872 0.841797 25.5977 0.841797C18.8083 0.841797 17.9554 0.869997 15.2883 0.993197Z" fill="url(#paint0_radial)"/>
<path d="M17.2634 25.8418C17.2634 21.2396 20.9933 17.5078 25.5957 17.5078C30.1981 17.5078 33.9301 21.2396 33.9301 25.8418C33.9301 30.444 30.1981 34.1758 25.5957 34.1758C20.9933 34.1758 17.2634 30.444 17.2634 25.8418ZM12.758 25.8418C12.758 32.9318 18.5054 38.679 25.5957 38.679C32.686 38.679 38.4334 32.9318 38.4334 25.8418C38.4334 18.7518 32.686 13.0046 25.5957 13.0046C18.5054 13.0046 12.758 18.7518 12.758 25.8418ZM35.9415 12.4956C35.9413 13.0889 36.117 13.669 36.4465 14.1625C36.7759 14.656 37.2443 15.0407 37.7925 15.268C38.3406 15.4953 38.9438 15.5549 39.5258 15.4394C40.1078 15.3239 40.6425 15.0384 41.0622 14.619C41.482 14.1996 41.7679 13.6651 41.8839 13.0832C41.9999 12.5013 41.9407 11.8981 41.7139 11.3499C41.487 10.8016 41.1027 10.3329 40.6094 10.0031C40.1162 9.67321 39.5362 9.49703 38.9429 9.4968H38.9417C38.1463 9.49717 37.3836 9.81319 36.8211 10.3755C36.2586 10.9377 35.9422 11.7003 35.9415 12.4956V12.4956ZM15.4953 46.1912C13.0578 46.0802 11.733 45.6742 10.8525 45.3312C9.68529 44.8768 8.85246 44.3356 7.97682 43.4612C7.10119 42.5868 6.55917 41.7548 6.10675 40.5876C5.76353 39.7076 5.35752 38.3824 5.24671 35.945C5.12551 33.3098 5.10131 32.5182 5.10131 25.842C5.10131 19.1658 5.12751 18.3764 5.24671 15.739C5.35772 13.3016 5.76673 11.979 6.10675 11.0964C6.56117 9.9292 7.10239 9.0964 7.97682 8.2208C8.85126 7.3452 9.68329 6.8032 10.8525 6.3508C11.7326 6.0076 13.0578 5.6016 15.4953 5.4908C18.1306 5.3696 18.9223 5.3454 25.5957 5.3454C32.2692 5.3454 33.0616 5.3716 35.6991 5.4908C38.1366 5.6018 39.4593 6.0108 40.3419 6.3508C41.5092 6.8032 42.342 7.3464 43.2176 8.2208C44.0933 9.0952 44.6333 9.9292 45.0877 11.0964C45.4309 11.9764 45.8369 13.3016 45.9477 15.739C46.0689 18.3764 46.0931 19.1658 46.0931 25.842C46.0931 32.5182 46.0689 33.3076 45.9477 35.945C45.8367 38.3824 45.4287 39.7072 45.0877 40.5876C44.6333 41.7548 44.0921 42.5876 43.2176 43.4612C42.3432 44.3348 41.5092 44.8768 40.3419 45.3312C39.4619 45.6744 38.1366 46.0804 35.6991 46.1912C33.0638 46.3124 32.2722 46.3366 25.5957 46.3366C18.9193 46.3366 18.1298 46.3124 15.4953 46.1912V46.1912ZM15.2883 0.993197C12.6268 1.1144 10.8081 1.5364 9.21987 2.1544C7.57501 2.7926 6.18255 3.6488 4.79109 5.038C3.39964 6.4272 2.5456 7.8218 1.90738 9.4666C1.28935 11.0558 0.867337 12.8734 0.746133 15.5348C0.622928 18.2004 0.594727 19.0526 0.594727 25.8418C0.594727 32.631 0.622928 33.4832 0.746133 36.1488C0.867337 38.8104 1.28935 40.6278 1.90738 42.217C2.5456 43.8608 3.39984 45.257 4.79109 46.6456C6.18235 48.0342 7.57501 48.8892 9.21987 49.5292C10.8111 50.1472 12.6268 50.5692 15.2883 50.6904C17.9554 50.8116 18.8063 50.8418 25.5957 50.8418C32.3852 50.8418 33.2374 50.8136 35.9031 50.6904C38.5648 50.5692 40.3823 50.1472 41.9716 49.5292C43.6154 48.8892 45.0089 48.0348 46.4004 46.6456C47.7918 45.2564 48.6441 43.8608 49.2841 42.217C49.9021 40.6278 50.3261 38.8102 50.4453 36.1488C50.5665 33.4812 50.5947 32.631 50.5947 25.8418C50.5947 19.0526 50.5665 18.2004 50.4453 15.5348C50.3241 12.8732 49.9021 11.0548 49.2841 9.4666C48.6441 7.8228 47.7896 6.4294 46.4004 5.038C45.0111 3.6466 43.6155 2.7926 41.9736 2.1544C40.3823 1.5364 38.5646 1.1124 35.9051 0.993197C33.2394 0.871997 32.3872 0.841797 25.5977 0.841797C18.8083 0.841797 17.9554 0.869997 15.2883 0.993197Z" fill="url(#paint1_radial)"/>
<defs>
<radialGradient id="paint0_radial" cx="0" cy="0" r="1" gradientUnits="userSpaceOnUse" gradientTransform="translate(7.23779 51.078) scale(65.2734 65.2708)">
<stop offset="0.09" stop-color="#FA8F21"/>
<stop offset="0.78" stop-color="#D82D7E"/>
</radialGradient>
<radialGradient id="paint1_radial" cx="0" cy="0" r="1" gradientUnits="userSpaceOnUse" gradientTransform="translate(30.9187 53.318) scale(51.4445 51.4424)">
<stop offset="0.64" stop-color="#8C3AAA" stop-opacity="0"/>
<stop offset="1" stop-color="#8C3AAA"/>
</radialGradient>
</defs>
</svg>
