<svg width="51" height="51" viewBox="0 0 51 51" fill="none" xmlns="http://www.w3.org/2000/svg">
<path d="M0.909515 4.42353C0.909515 2.44643 2.55414 0.841797 4.58174 0.841797H46.9225C48.9508 0.841797 50.5947 2.44643 50.5947 4.42353V47.2607C50.5947 49.2385 48.9508 50.8418 46.9225 50.8418H4.58174C2.55414 50.8418 0.909515 49.2385 0.909515 47.2614V4.42287V4.42353Z" fill="#006699"/>
<path d="M15.9709 42.6966V20.1189H8.46641V42.6966H15.9715H15.9709ZM12.22 17.0369C14.8364 17.0369 16.4653 15.3031 16.4653 13.1364C16.4161 10.9206 14.8364 9.23535 12.2698 9.23535C9.70119 9.23535 8.02377 10.9206 8.02377 13.1364C8.02377 15.3031 9.65201 17.0369 12.1708 17.0369H12.2193H12.22ZM20.1244 42.6966H27.6282V30.0897C27.6282 29.4156 27.6774 28.7401 27.8754 28.2588C28.4177 26.9099 29.6525 25.5138 31.726 25.5138C34.4409 25.5138 35.5274 27.584 35.5274 30.6195V42.6966H43.0312V29.7513C43.0312 22.8167 39.3295 19.5897 34.3923 19.5897C30.3443 19.5897 28.5666 21.8521 27.579 23.3931H27.6289V20.1196H20.1251C20.2228 22.2377 20.1244 42.6972 20.1244 42.6972V42.6966Z" fill="white"/>
</svg>
