<svg width="51" height="44" viewBox="0 0 51 44" fill="none" xmlns="http://www.w3.org/2000/svg">
<path d="M34.3924 0.370505C34.1344 0.250106 33.928 0.370505 33.928 0.662903V35.5614L49.2187 43.1982C49.9755 43.5766 50.5947 43.1982 50.5947 42.3382V8.74684C50.5947 8.57484 50.5087 8.42004 50.3539 8.35124L34.3924 0.370505Z" fill="#7AF798"/>
<path d="M17.2614 27.2368L33.6528 0.594201C33.8076 0.353403 34.1344 0.250204 34.3924 0.387803L50.2335 8.29974C50.4227 8.40294 50.5087 8.64373 50.3883 8.83293L33.928 35.5615L17.2614 27.2368Z" fill="#67DF7C"/>
<path d="M2.43512 1.07556C1.42033 0.559566 1.07633 0.937963 1.67833 1.91835L17.2614 27.2365L33.9281 35.5785L17.3646 8.6607C17.2958 8.5403 17.1926 8.4543 17.0722 8.3855L2.43512 1.07556Z" fill="#5BC371"/>
<path d="M17.2614 42.3555C17.2614 43.1983 16.6422 43.5939 15.8854 43.2155L1.52352 36.026C1.00752 35.768 0.594727 35.0972 0.594727 34.5296V1.17907C0.594727 0.611474 1.00752 0.353476 1.52352 0.611474L17.055 8.38581C17.1754 8.45461 17.2614 8.57501 17.2614 8.71261V42.3555Z" fill="#4BA871"/>
</svg>
