<svg width="41" height="41" viewBox="0 0 41 41" fill="none" xmlns="http://www.w3.org/2000/svg">
<path d="M40.0752 22.3539C40.1193 21.887 39.9991 21.4001 39.6985 20.9893C39.0473 20.0956 37.7929 19.8993 36.8993 20.5505C34.9957 21.9391 32.7736 22.7266 30.5113 22.8788C29.1167 22.973 27.7081 22.8247 26.3496 22.426C25.0351 22.0413 23.7647 21.4221 22.5946 20.5585C21.2821 19.5887 20.2281 18.4065 19.4387 17.094C18.6191 15.7315 18.0841 14.2247 17.8517 12.6738C17.6193 11.1229 17.6874 9.52589 18.0721 7.981C18.4408 6.49623 19.102 5.05554 20.0738 3.74308C20.3584 3.36037 20.5067 2.87146 20.4566 2.3585C20.3504 1.25644 19.3705 0.450933 18.2685 0.559135C16.0303 0.777543 13.8883 1.35863 11.9126 2.24829C9.89884 3.15398 8.05539 4.38228 6.45641 5.87106C4.6871 7.51413 3.21435 9.4798 2.13032 11.6839C1.08237 13.8159 0.401093 16.1683 0.170662 18.667C-0.0798058 21.366 0.218752 23.9929 0.976167 26.4375C1.76163 28.9742 3.04203 31.3086 4.70914 33.3163C6.37626 35.3241 8.4361 37.0092 10.7865 38.2475C13.0507 39.4398 15.5794 40.2152 18.2785 40.4637C20.9775 40.7122 23.6064 40.4136 26.049 39.6562C28.5858 38.8707 30.9201 37.5903 32.9279 35.9232C34.9356 34.2561 36.6208 32.1962 37.8591 29.8459C39.0513 27.5816 39.8268 25.0529 40.0752 22.3539ZM35.2081 25.9446C34.9557 26.6479 34.6551 27.3251 34.3125 27.9764C33.3246 29.8539 31.9761 31.5029 30.3671 32.8394C28.7581 34.1759 26.8906 35.1999 24.8628 35.827C22.9132 36.4322 20.8132 36.6706 18.6472 36.4702C16.4811 36.2699 14.4614 35.6487 12.656 34.6989C10.7785 33.7111 9.1294 32.3626 7.7929 30.7535C6.45641 29.1445 5.43249 27.2771 4.80532 25.2493C4.20019 23.2996 3.96174 21.1997 4.16212 19.0337C4.34646 17.0299 4.89349 15.1504 5.72905 13.4512C6.59066 11.6919 7.76886 10.123 9.1855 8.80454C10.4679 7.61231 11.9447 6.62847 13.5597 5.90112C13.9183 5.73881 14.285 5.59054 14.6577 5.45428C14.4734 5.96924 14.3151 6.48821 14.1848 7.01319C13.6719 9.07504 13.5797 11.203 13.8903 13.2669C14.2009 15.3307 14.9122 17.3385 16.0062 19.1599C17.0622 20.9132 18.4709 22.4921 20.2141 23.7805C21.767 24.9287 23.4642 25.7562 25.2235 26.2712C27.0409 26.8042 28.9224 27.0005 30.7778 26.8763C32.2847 26.7761 33.7754 26.4615 35.2061 25.9446H35.2081Z" fill="#FFDD33"/>
<path d="M35.2082 25.9446C34.9557 26.6479 34.6551 27.3251 34.3125 27.9764C33.3246 29.8539 31.9761 31.5029 30.3671 32.8394C28.7581 34.1759 26.8906 35.1999 24.8628 35.827C22.9132 36.4322 20.8133 36.6706 18.6472 36.4702C16.4812 36.2699 14.4614 35.6487 12.656 34.6989C10.7785 33.7111 9.12944 32.3625 7.79294 30.7535C6.45644 29.1445 5.43253 27.277 4.80536 25.2493C4.20023 23.2996 3.96178 21.1997 4.16216 19.0336C4.3465 17.0299 4.89352 15.1504 5.72908 13.4512C6.59069 11.6919 7.7689 10.123 9.18554 8.80454C10.4679 7.61231 11.9447 6.62847 13.5597 5.90111C13.9184 5.73881 14.2851 5.59053 14.6578 5.45428C14.4734 5.96924 14.3151 6.48821 14.1849 7.01319C13.6719 9.07504 13.5798 11.203 13.8903 13.2669C14.2009 15.3307 14.9122 17.3385 16.0063 19.1599C17.0623 20.9132 18.4709 22.4921 20.2141 23.7805C21.767 24.9287 23.4642 25.7562 25.2235 26.2712C27.0409 26.8042 28.9224 27.0005 30.7779 26.8763C32.2847 26.7761 33.7755 26.4615 35.2062 25.9446H35.2082Z" fill="#FFEE99"/>
</svg>
