<svg width="41" height="41" viewBox="0 0 41 41" fill="none" xmlns="http://www.w3.org/2000/svg">
<path fill-rule="evenodd" clip-rule="evenodd" d="M22.3372 29.4516L24.5159 27.2729L27.4209 30.1779L29.5997 27.9991L26.6947 25.0941L28.8734 22.9153L38.6779 32.7198C40.4828 34.5247 40.4828 37.4511 38.6779 39.2561C36.873 41.061 33.9465 41.061 32.1416 39.2561L22.3372 29.4516ZM31.7785 30.1779L29.5997 32.3566L34.3203 37.0773C34.922 37.6789 35.8975 37.6789 36.4991 37.0773C37.1007 36.4757 37.1008 35.5002 36.4991 34.8985L31.7785 30.1779Z" fill="#4D3319"/>
<path d="M24.516 27.2729L26.6948 25.0941L29.5998 27.9991L27.421 30.1779L24.516 27.2729Z" fill="#CCCCCC"/>
<path d="M36.4993 37.0773C35.8977 37.6789 34.9222 37.6789 34.3205 37.0773L29.5999 32.3566L31.7786 30.1779L36.4993 34.8985C37.1009 35.5002 37.1009 36.4757 36.4993 37.0773Z" fill="#CC9966"/>
<path d="M26.3317 5.12211C32.3482 11.1386 32.3482 20.8932 26.3317 26.9097C20.3152 32.9262 10.5606 32.9262 4.5441 26.9097C-1.47238 20.8932 -1.47238 11.1386 4.5441 5.12211C10.5606 -0.894372 20.3152 -0.894371 26.3317 5.12211Z" fill="#5CADD6"/>
<path d="M24.153 7.3009C28.9662 12.1141 28.9662 19.9178 24.153 24.731C19.3398 29.5442 11.5361 29.5442 6.72293 24.731C1.90974 19.9178 1.90974 12.1141 6.72293 7.3009C11.5361 2.48771 19.3398 2.48771 24.153 7.3009Z" fill="#ADD6EB"/>
</svg>
