<svg width="52" height="43" viewBox="0 0 52 43" fill="none" xmlns="http://www.w3.org/2000/svg">
<path d="M34.0032 1.53978V1.53076H36.3477L37.2043 1.70209C37.7754 1.81331 38.2939 1.95908 38.7597 2.13942C39.2257 2.31976 39.6765 2.53018 40.1123 2.77062C40.5482 3.01106 40.9434 3.25605 41.2981 3.50551C41.6498 3.752 41.9654 4.01349 42.2449 4.29C42.5214 4.56954 42.9527 4.64167 43.5388 4.50642C44.1249 4.37116 44.7561 4.18329 45.4324 3.94284C46.1087 3.7024 46.7775 3.43189 47.4387 3.1313C48.1 2.83072 48.5028 2.63987 48.6471 2.55871C48.7883 2.47458 48.8635 2.4295 48.8725 2.42346L48.8815 2.40993L48.9266 2.38739L48.9716 2.36485L49.0167 2.3423L49.0618 2.31976L49.0708 2.30624L49.0844 2.29722L49.0979 2.2882L49.1069 2.27468L49.152 2.26115L49.1971 2.25213L49.1881 2.31976L49.1745 2.38739L49.152 2.45502L49.1294 2.52265L49.1069 2.56773L49.0844 2.61282L49.0618 2.68045C49.0468 2.72553 49.0318 2.78563 49.0167 2.86079C49.0017 2.93595 48.8589 3.23649 48.5884 3.7625C48.3179 4.28852 47.9798 4.82201 47.574 5.36304C47.1682 5.90407 46.8046 6.31282 46.483 6.58937C46.1583 6.8689 45.9434 7.06426 45.8382 7.17549C45.733 7.28969 45.6053 7.39487 45.455 7.49109L45.2295 7.63987L45.1844 7.66241L45.1394 7.68495L45.1304 7.69848L45.1168 7.7075L45.1033 7.71651L45.0943 7.73004L45.0492 7.75258L45.0041 7.77513L44.9951 7.78865L44.9816 7.79767L44.968 7.80669L44.959 7.82021L44.95 7.83374L44.9365 7.84275L44.9229 7.85177L44.9139 7.8653H45.1394L46.4018 7.59478C47.2434 7.41444 48.0474 7.19654 48.8138 6.94104L50.0312 6.53527L50.1664 6.49018L50.234 6.46764L50.2791 6.4451L50.3242 6.42256L50.3693 6.40001L50.4144 6.37747L50.5046 6.36394L50.5947 6.35493V6.4451L50.5722 6.45412L50.5496 6.46764L50.5407 6.48117L50.5271 6.49018L50.5136 6.4992L50.5046 6.51273L50.4956 6.52625L50.482 6.53527L50.4685 6.54429L50.4595 6.55781L50.4505 6.57134L50.4369 6.58036L50.4144 6.62544L50.3918 6.67053L50.3783 6.67954C50.3723 6.68856 50.1815 6.94402 49.8057 7.446C49.43 7.95096 49.2271 8.20642 49.1971 8.21246C49.167 8.22147 49.1249 8.26656 49.0708 8.34771C49.0197 8.43184 48.7011 8.76701 48.115 9.35312C47.5289 9.93924 46.9549 10.4607 46.3928 10.9176C45.8277 11.3775 45.5422 11.9425 45.5362 12.6128C45.5271 13.2801 45.4926 14.0345 45.4324 14.8761C45.3723 15.7177 45.2596 16.6269 45.0943 17.6038C44.929 18.5807 44.6735 19.6853 44.3278 20.9176C43.9822 22.1499 43.5614 23.3522 43.0654 24.5244C42.5695 25.6967 42.051 26.7487 41.51 27.6804C40.9689 28.6122 40.473 29.4012 40.0221 30.0474C39.5713 30.6937 39.1129 31.3023 38.647 31.8734C38.1812 32.4445 37.5921 33.0877 36.8797 33.8031C36.1643 34.5154 35.7736 34.9062 35.7075 34.9753C35.6384 35.0414 35.3438 35.2879 34.8238 35.7147C34.3068 36.1445 33.7507 36.5743 33.1556 37.0042C32.5635 37.431 32.0194 37.7872 31.5235 38.0727C31.0275 38.3582 30.4294 38.6843 29.7291 39.051C29.0318 39.4208 28.2773 39.7634 27.4658 40.079C26.6542 40.3946 25.7976 40.6877 24.8959 40.9582C23.9942 41.2287 23.1225 41.4391 22.2809 41.5894C21.4394 41.7396 20.485 41.8674 19.418 41.9726L17.8174 42.1304V42.1529H14.8869V42.1304L14.5037 42.1079C14.2482 42.0928 14.0378 42.0778 13.8725 42.0628C13.7072 42.0478 13.0835 41.9651 12.0014 41.8148C10.9193 41.6645 10.0702 41.5142 9.45406 41.3639C8.83792 41.2137 7.92115 40.9281 6.70383 40.5073C5.48652 40.0865 4.44504 39.6612 3.5794 39.2314C2.71677 38.8046 2.17575 38.5341 1.95631 38.4199C1.7399 38.3086 1.49644 38.1704 1.22593 38.0051L0.820155 37.7571L0.811183 37.7436L0.797612 37.7345L0.784086 37.7255L0.775069 37.712L0.729984 37.6895L0.684898 37.6669L0.675926 37.6534L0.662355 37.6444L0.648829 37.6354L0.639812 37.6218L0.63084 37.6083L0.617269 37.5993H0.594727V37.5091L0.639812 37.5181L0.684898 37.5317L0.887783 37.5542C1.02304 37.5692 1.39125 37.5918 1.99238 37.6218C2.59355 37.6519 3.23224 37.6519 3.90852 37.6218C4.58481 37.5918 5.27615 37.5241 5.98246 37.4189C6.68882 37.3138 7.5229 37.1334 8.48472 36.8779C9.44657 36.6224 10.3303 36.3189 11.1358 35.9672C11.9383 35.6125 12.5094 35.348 12.8491 35.1737C13.1857 35.0024 13.6996 34.6837 14.3909 34.2179L15.4279 33.519L15.4369 33.5055L15.4505 33.4965L15.464 33.4875L15.473 33.474L15.482 33.4604L15.4955 33.4514L15.5091 33.4424L15.5181 33.4289L15.5632 33.4153L15.6083 33.4063L15.6173 33.3612L15.6308 33.3162L15.6444 33.3071L15.6533 33.2936L15.2927 33.2711C15.0522 33.2561 14.8193 33.241 14.5938 33.226C14.3684 33.211 14.0152 33.1433 13.5343 33.0231C13.0534 32.9029 12.5349 32.7225 11.9789 32.4821C11.4228 32.2416 10.8818 31.9561 10.3558 31.6254C9.8298 31.2948 9.44955 31.0198 9.2151 30.8004C8.98368 30.5839 8.68309 30.2774 8.31339 29.8806C7.94671 29.4809 7.62809 29.0706 7.35758 28.6498C7.08706 28.229 6.82859 27.7435 6.58215 27.1935L6.20789 26.373L6.18535 26.3053L6.16281 26.2377L6.14928 26.1926L6.14026 26.1475L6.20789 26.1566L6.27552 26.1701L6.77146 26.2377C7.10212 26.2828 7.62061 26.2978 8.32692 26.2828C9.03327 26.2678 9.52169 26.2377 9.7922 26.1926C10.0627 26.1475 10.228 26.1175 10.2881 26.1024L10.3783 26.0799L10.491 26.0574L10.6037 26.0348L10.6128 26.0213L10.6263 26.0123L10.6399 26.0033L10.6488 25.9897L10.5587 25.9672L10.4685 25.9446L10.3783 25.9221L10.2881 25.8996L10.198 25.877C10.1379 25.862 10.0327 25.8319 9.88237 25.7868C9.7321 25.7418 9.32633 25.5764 8.66506 25.2909C8.00383 25.0054 7.47782 24.7273 7.08706 24.4568C6.69534 24.1855 6.32183 23.8888 5.96894 23.5686C5.61727 23.244 5.23107 22.8262 4.81024 22.3153C4.38945 21.8043 4.01375 21.2107 3.68309 20.5344C3.35248 19.8581 3.10451 19.2119 2.93918 18.5957C2.77452 17.9831 2.66588 17.3569 2.61461 16.7246L2.53341 15.7778L2.5785 15.7868L2.62358 15.8004L2.66867 15.8229L2.71375 15.8455L2.75884 15.868L2.80392 15.8905L3.50275 16.2061C3.96867 16.4166 4.54725 16.5969 5.23855 16.7472C5.92989 16.8974 6.34315 16.9801 6.47841 16.9951L6.68129 17.0177H7.08706L7.07809 17.0042L7.06452 16.9951L7.05099 16.9861L7.04198 16.9726L7.033 16.9591L7.01943 16.9501L7.00591 16.941L6.99689 16.9275L6.9518 16.905L6.90672 16.8824L6.89775 16.8689L6.88418 16.8599L6.87065 16.8509L6.86163 16.8373L6.81655 16.8148L6.77146 16.7923L6.76249 16.7787C6.75347 16.7727 6.62421 16.6765 6.37471 16.4902C6.12822 16.3008 5.86975 16.0559 5.59923 15.7553C5.32872 15.4547 5.05821 15.1391 4.78769 14.8085C4.51668 14.4771 4.2753 14.1226 4.06632 13.749C3.85595 13.3733 3.6335 12.8953 3.39905 12.3153C3.16763 11.7382 2.9918 11.1566 2.87155 10.5704C2.75135 9.98432 2.68373 9.40574 2.66867 8.83464C2.65365 8.26354 2.66867 7.77513 2.71375 7.36935C2.75884 6.96358 2.84901 6.5052 2.98427 5.99424C3.11952 5.48329 3.31492 4.94226 3.57038 4.37116L3.95361 3.51453L3.97615 3.4469L3.99869 3.37927L4.01226 3.37026L4.02124 3.35673L4.03025 3.34321L4.04378 3.33419L4.05735 3.34321L4.06632 3.35673L4.07534 3.37026L4.08887 3.37927L4.10244 3.38829L4.11141 3.40182L4.12043 3.41534L4.13395 3.42436L4.15649 3.46945L4.17904 3.51453L4.19261 3.52355L4.20158 3.53707L4.81024 4.21336C5.21601 4.66422 5.69694 5.16769 6.25298 5.72373C6.80906 6.27977 7.11713 6.56832 7.17723 6.58937C7.23738 6.6134 7.31249 6.68252 7.40266 6.79677C7.49283 6.90799 7.79342 7.174 8.30437 7.59478C8.81538 8.01557 9.48413 8.50403 10.3107 9.06007C11.1373 9.61611 12.054 10.1647 13.0609 10.7057C14.0679 11.2467 15.1499 11.7351 16.3071 12.171C17.4643 12.6068 18.2758 12.8923 18.7417 13.0276C19.2076 13.1629 20.0041 13.3357 21.1312 13.5461C22.2584 13.7565 23.1075 13.8918 23.6786 13.9519C24.2497 14.012 24.6404 14.0465 24.8508 14.0556L25.1664 14.0646L25.1574 13.9969L25.1439 13.9293L25.0537 13.3657C24.9936 12.99 24.9635 12.464 24.9635 11.7877C24.9635 11.1115 25.0161 10.4878 25.1213 9.91669C25.2266 9.34559 25.3844 8.76701 25.5947 8.1809C25.8051 7.59478 26.011 7.12436 26.2124 6.76972C26.4168 6.41805 26.6843 6.01678 27.0149 5.56593C27.3456 5.11507 27.7739 4.6492 28.2999 4.16827C28.8259 3.68734 29.427 3.25903 30.1033 2.88333C30.7796 2.50763 31.4033 2.22206 31.9743 2.0267C32.5454 1.83135 33.0264 1.70358 33.4171 1.64348C33.8078 1.58338 34.0032 1.5488 34.0032 1.53978V1.53978Z" fill="#5DA8DC" stroke="#5DA8DC" stroke-width="1.12646"/>
</svg>
