<svg width="51" height="36" viewBox="0 0 51 36" fill="none" xmlns="http://www.w3.org/2000/svg">
<path d="M34.0552 17.3302C29.4708 14.8803 25.0811 12.6279 20.5941 10.2764V24.3441C25.3158 21.7773 30.2927 19.4267 34.0747 17.3302H34.0552V17.3302Z" fill="white"/>
<path d="M34.0552 17.3302C29.4708 14.8803 20.5941 10.2764 20.5941 10.2764L32.429 18.2309C32.4299 18.2309 30.2732 19.4267 34.0552 17.3302Z" fill="#E8E0E0"/>
<path d="M21.4569 35.3561C11.9346 35.1808 8.68227 35.0231 6.68319 34.6112C5.33069 34.3376 4.15536 33.73 3.29358 32.8487C2.62753 32.1817 2.09784 31.1641 1.68689 29.7522C1.33439 28.576 1.1971 27.5973 1.00136 25.2067C0.701733 19.8116 0.630304 15.4006 1.00136 10.472C1.30749 7.75031 1.45591 4.51932 3.48931 2.63435C4.44942 1.75215 5.56631 1.18444 6.82048 0.949741C8.77967 0.577755 17.1266 0.283691 25.7676 0.283691C34.3892 0.283691 42.7547 0.577755 44.7157 0.949741C46.2825 1.24381 47.7519 2.12507 48.6146 3.26143C50.4699 6.17981 50.5024 9.80876 50.6907 12.6474C50.7686 13.9999 50.7686 21.6798 50.6907 23.0323C50.3976 27.5184 50.1619 29.1056 49.4959 30.7513C49.084 31.7902 48.7324 32.3385 48.1239 32.9461C47.1695 33.8811 45.9528 34.5031 44.636 34.729C36.3957 35.3487 29.3985 35.4832 21.4569 35.3561V35.3561ZM34.0756 17.3301C29.4912 14.8802 25.1016 12.6084 20.6146 10.2568V24.3255C25.3363 21.7587 30.314 19.4071 34.0951 17.3106L34.0756 17.3301Z" fill="#CD201F"/>
</svg>
