<svg width="31" height="19" viewBox="0 0 31 19" fill="none" xmlns="http://www.w3.org/2000/svg">
<path d="M15.4582 0.52356C16.6185 0.52356 17.7313 0.984496 18.5518 1.80497C19.3723 2.62544 19.8332 3.73824 19.8332 4.89856C19.8332 6.05888 19.3723 7.17168 18.5518 7.99215C17.7313 8.81262 16.6185 9.27356 15.4582 9.27356C14.2979 9.27356 13.1851 8.81262 12.3646 7.99215C11.5441 7.17168 11.0832 6.05888 11.0832 4.89856C11.0832 3.73824 11.5441 2.62544 12.3646 1.80497C13.1851 0.984496 14.2979 0.52356 15.4582 0.52356ZM6.70819 3.64856C7.40819 3.64856 8.05819 3.83606 8.62069 4.17356C8.43319 5.96106 8.95819 7.73606 10.0332 9.12356C9.40819 10.3236 8.15819 11.1486 6.70819 11.1486C5.71363 11.1486 4.7598 10.7535 4.05654 10.0502C3.35328 9.34695 2.95819 8.39312 2.95819 7.39856C2.95819 6.404 3.35328 5.45017 4.05654 4.74691C4.7598 4.04365 5.71363 3.64856 6.70819 3.64856ZM24.2082 3.64856C25.2028 3.64856 26.1566 4.04365 26.8598 4.74691C27.5631 5.45017 27.9582 6.404 27.9582 7.39856C27.9582 8.39312 27.5631 9.34695 26.8598 10.0502C26.1566 10.7535 25.2028 11.1486 24.2082 11.1486C22.7582 11.1486 21.5082 10.3236 20.8832 9.12356C21.9582 7.73606 22.4832 5.96106 22.2957 4.17356C22.8582 3.83606 23.5082 3.64856 24.2082 3.64856ZM7.33319 16.4611C7.33319 13.8736 10.9707 11.7736 15.4582 11.7736C19.9457 11.7736 23.5832 13.8736 23.5832 16.4611V18.6486H7.33319V16.4611ZM0.458191 18.6486V16.7736C0.458191 15.0361 2.82069 13.5736 6.02069 13.1486C5.28319 13.9986 4.83319 15.1736 4.83319 16.4611V18.6486H0.458191ZM30.4582 18.6486H26.0832V16.4611C26.0832 15.1736 25.6332 13.9986 24.8957 13.1486C28.0957 13.5736 30.4582 15.0361 30.4582 16.7736V18.6486Z" fill="#F2C94C"/>
</svg>
