<svg width="31" height="31" viewBox="0 0 31 31" fill="none" xmlns="http://www.w3.org/2000/svg">
<path d="M2.73435 23.0083V28.3099H8.03595L23.6721 12.6596L18.3705 7.35797L2.73435 23.0083ZM30.4582 24.5776L24.4497 30.5861L17.0982 23.2345L19.6005 20.7321L21.0143 22.1459L24.5063 18.6398L26.5138 20.6473L24.4497 22.6549L25.9483 24.0686L27.9558 22.0894L30.4582 24.5776ZM7.83802 13.932L0.458191 6.59454L6.46667 0.58606L8.95489 3.08842L5.4629 6.59454L6.97563 8.09313L10.4535 4.587L12.461 6.59454L10.4535 8.58794L11.8672 10.0017L7.83802 13.932ZM27.772 8.51726C28.3234 7.96589 28.3234 7.1035 27.772 6.52385L24.4638 3.2722C23.9408 2.72084 23.0218 2.72084 22.4704 3.2722L19.8691 5.85939L25.1707 11.161L27.772 8.51726Z" fill="#F2C94C"/>
</svg>
