<svg width="30" height="31" viewBox="0 0 30 31" fill="none" xmlns="http://www.w3.org/2000/svg">
<path d="M15.0522 20.8361C13.6598 20.8361 12.3244 20.2829 11.3399 19.2984C10.3553 18.3138 9.80219 16.9784 9.80219 15.5861C9.80219 14.1937 10.3553 12.8583 11.3399 11.8737C12.3244 10.8892 13.6598 10.3361 15.0522 10.3361C16.4446 10.3361 17.7799 10.8892 18.7645 11.8737C19.7491 12.8583 20.3022 14.1937 20.3022 15.5861C20.3022 16.9784 19.7491 18.3138 18.7645 19.2984C17.7799 20.2829 16.4446 20.8361 15.0522 20.8361ZM26.1972 17.0411C26.2572 16.5611 26.3022 16.0811 26.3022 15.5861C26.3022 15.0911 26.2572 14.5961 26.1972 14.0861L29.3622 11.6411C29.6472 11.4161 29.7222 11.0111 29.5422 10.6811L26.5422 5.49106C26.3622 5.16106 25.9572 5.02606 25.6272 5.16106L21.8922 6.66106C21.1122 6.07606 20.3022 5.56606 19.3572 5.19106L18.8022 1.21606C18.7422 0.85606 18.4272 0.58606 18.0522 0.58606H12.0522C11.6772 0.58606 11.3622 0.85606 11.3022 1.21606L10.7472 5.19106C9.80219 5.56606 8.99219 6.07606 8.21219 6.66106L4.47719 5.16106C4.14719 5.02606 3.74219 5.16106 3.56219 5.49106L0.562188 10.6811C0.367188 11.0111 0.457188 11.4161 0.742188 11.6411L3.90719 14.0861C3.84719 14.5961 3.80219 15.0911 3.80219 15.5861C3.80219 16.0811 3.84719 16.5611 3.90719 17.0411L0.742188 19.5311C0.457188 19.7561 0.367188 20.1611 0.562188 20.4911L3.56219 25.6811C3.74219 26.0111 4.14719 26.1311 4.47719 26.0111L8.21219 24.4961C8.99219 25.0961 9.80219 25.6061 10.7472 25.9811L11.3022 29.9561C11.3622 30.3161 11.6772 30.5861 12.0522 30.5861H18.0522C18.4272 30.5861 18.7422 30.3161 18.8022 29.9561L19.3572 25.9811C20.3022 25.5911 21.1122 25.0961 21.8922 24.4961L25.6272 26.0111C25.9572 26.1311 26.3622 26.0111 26.5422 25.6811L29.5422 20.4911C29.7222 20.1611 29.6472 19.7561 29.3622 19.5311L26.1972 17.0411Z" fill="#F2C94C"/>
</svg>
