<svg width="50" height="50" viewBox="0 0 50 50" fill="none" xmlns="http://www.w3.org/2000/svg">
<circle cx="25" cy="25" r="25" fill="black"/>
<path fill-rule="evenodd" clip-rule="evenodd" d="M26.2373 11.8054C25.6415 10.936 24.3585 10.936 23.7627 11.8054L20.0115 17.2789C19.8164 17.5635 19.5292 17.7721 19.1983 17.8697L12.8335 19.7459C11.8226 20.0439 11.4261 21.2641 12.0688 22.0994L16.1152 27.3584C16.3256 27.6319 16.4353 27.9695 16.4258 28.3144L16.2434 34.9474C16.2144 36.0009 17.2524 36.7551 18.2454 36.4019L24.4974 34.1787C24.8225 34.0631 25.1775 34.0631 25.5026 34.1787L31.7546 36.4019C32.7476 36.7551 33.7856 36.0009 33.7566 34.9474L33.5742 28.3144C33.5647 27.9695 33.6744 27.6319 33.8848 27.3584L37.9312 22.0994C38.5739 21.2641 38.1774 20.0439 37.1665 19.7459L30.8017 17.8697C30.4708 17.7721 30.1836 17.5635 29.9885 17.2789L26.2373 11.8054ZM25 30C27.7614 30 30 27.7614 30 25C30 22.2386 27.7614 20 25 20C22.2386 20 20 22.2386 20 25C20 27.7614 22.2386 30 25 30Z" fill="#4F4F4F"/>
</svg>
